# xmcd
#
# Track frame offsets: 
#        150
#        15637
#        38195
#        60460
#        79145
#        96765
#        112907
#        126565
#        158437
#        180482
#        191635
#        211457
#
# Disc length: 3189 seconds
#
# Revision: 3
# Processed by: cddbd v1.5.1PL0 Copyright (c) Steve Scherf et al.
# Submitted via: ExactAudioCopy v0.95a5
#
DISCID=970c730c
DTITLE=James Cotton Blues Band - 35th Anniversary Jam
DYEAR=2002
DGENRE=Blues
TTITLE0=Don't Start Me Talking
TTITLE1=The Creeper
TTITLE2=I've Got A Feeling
TTITLE3=Cotton Crop Blues
TTITLE4=Fatuation
TTITLE5=How Long Can A Fool Go Wrong?
TTITLE6=Rocket 88
TTITLE7=Blues In My Sleep
TTITLE8=River's Invitation
TTITLE9=All Walks Of Life
TTITLE10=Hold Me Baby
TTITLE11=Blues For The Hook
EXTD=YEAR: 2001 ID3G: 0
EXTT0=
EXTT1=
EXTT2=
EXTT3=
EXTT4=
EXTT5=
EXTT6=
EXTT7=
EXTT8=
EXTT9=
EXTT10=
EXTT11=
PLAYORDER=
